# xmcd
#
# Track frame offsets:
#	150
#	14918
#	29009
#	42294
#	55777
#	68413
#	82255
#	94918
#	108941
#	122590
#	136032
#	150277
#	164079
#	178563
#	190981
#	205974
#	217938
#	228978
#	242788
#	257191
#	272925
#	288640
#	302636
#	316950
#
# Disc length: 4413 seconds
#
# Revision: 1
# Processed by: cddbd v1.5.2PL0 Copyright (c) Steve Scherf et al.
# Submitted via: EZCDAudioConverter 4.0.5.1
#
DISCID=5d113b18
DTITLE=Various Artist - Unsung Heroes Of Country Blues Vol. 2
DYEAR=2015
DGENRE=Country Blues
TTITLE0=Kansa Joe - Bothering That Thing
TTITLE1=Ed Bell - She's A Fool Gal
TTITLE2=Kid Cole - Niagara Falls Blues
TTITLE3=Papa Charlie Jackson - The Cat's Got The Measles
TTITLE4=George Torey - Lonesome Man Blues
TTITLE5=Memphis Jug Band - This Will Bring You Back
TTITLE6=Kid Bailey - Mississippi Bottom Blues
TTITLE7=Buddy Boy Johnson - Snatch It And Grab It
TTITLE8=Sylvester Weaver - Guitar Rag
TTITLE9=Bobby Grant - Lonesome Atlanta Blues
TTITLE10=William (Bill) Moore - Ragtime Millionaire
TTITLE11=Jaybird Coleman - Man Trouble Blues
TTITLE12=Jelly Jaw Short - Grand Daddy Blues
TTITLE13=Blind Joe Taggart - Religion Is Something Within You
TTITLE14=Willie Baker - Rag Baby
TTITLE15=Jim Jackson - Hey Mama It's Nice Like That (Part 2)
TTITLE16=Ramblin' Thomas - Poor Boy Blues
TTITLE17=Pillie Bolling - Shake Me Like A Dog
TTITLE18=Mattie Delaney - Down The Big Road Blues
TTITLE19=Ishman Bracey - Woman Woman Blues
TTITLE20=Willie Walker - Dupree Blues
TTITLE21=Charley Lincoln - Mama Don't Rush Me
TTITLE22=Billy Bird - Alabama Blues Part 1
TTITLE23=Little Hat Jones - Bye Bye Baby Blues
EXTD=
EXTT0=
EXTT1=
EXTT2=
EXTT3=
EXTT4=
EXTT5=
EXTT6=
EXTT7=
EXTT8=
EXTT9=
EXTT10=
EXTT11=
EXTT12=
EXTT13=
EXTT14=
EXTT15=
EXTT16=
EXTT17=
EXTT18=
EXTT19=
EXTT20=
EXTT21=
EXTT22=
EXTT23=
PLAYORDER=
